<?xml version="1.0" encoding="iso-8859-1"?>
<svg version="1.1" xmlns="http://www.w3.org/2000/svg" xmlns:xlink="http://www.w3.org/1999/xlink" x="0px" y="0px" viewBox="0 0 32 32" xml:space="preserve">
<path fill="#005F76" d="M6,0h20c3.314,0,6,2.686,6,6v20c0,3.314-2.686,6-6,6H6c-3.314,0-6-2.686-6-6V6C0,2.686,2.686,0,6,0z"/>
<path fill="#FFFFFF" d="M9.761,13.068H8.11L9.018,9.82h5.974l-0.854,2.945c1.597-2.174,3.083-3.138,4.68-3.138 c2.202,0,3.413,2.037,2.643,4.404l-1.349,4.02c-0.138,0.385-0.027,0.633,0.303,0.633c0.605,0,2.725-0.908,6.606-2.864l-1.156,4.047 c-3.331,1.707-5.588,2.505-7.212,2.505c-2.533,0-3.579-1.679-2.726-4.377l1.046-3.303c0.275-0.881-0.028-1.487-0.716-1.487 c-0.743,0-1.597,0.551-2.752,1.79l-2.065,7.212H7.146L9.761,13.068z"/>
</svg>
